<?xml version="1.0" encoding="UTF-8"?>
<svg id="Layer_1" data-name="Layer 1" xmlns="http://www.w3.org/2000/svg" viewBox="0 0 508.54 95.43">
  <rect width="95.43" height="95.43" rx="11.72" ry="11.72" fill="#2662af"/>
  <g>
    <path d="m240.23,30.83v16.54c0,18.56-14.17,33.66-31.58,33.66h-2.38c-17.41,0-31.57-15.1-31.57-33.66V14.41h11.97v32.96c0,11.51,8.79,20.89,19.59,20.89h2.38c10.81,0,19.6-9.38,19.6-20.89v-16.54h11.97Z" fill="#f58120"/>
    <rect x="228.26" y="14.41" width="11.97" height="11.97" fill="#2662af"/>
  </g>
  <g>
    <path d="m138.43,81.03h-31.42v-12.18h31.42c10.98,0,19.92-8.94,19.92-19.92v-2.42c0-10.98-8.94-19.92-19.92-19.92h-31.42v-12.18h31.42c17.7,0,32.1,14.4,32.1,32.1v2.42c0,17.7-14.4,32.1-32.1,32.1Z" fill="#f58120"/>
    <rect x="107.01" y="32.77" width="12.18" height="12.18" fill="#f58120"/>
    <rect x="107.01" y="50.5" width="12.18" height="12.18" fill="#f58120"/>
  </g>
  <path d="m340.83,26.59c11.65,0,21.13,9.48,21.13,21.13s-9.48,21.13-21.13,21.13-21.13-9.48-21.13-21.13,9.48-21.13,21.13-21.13m0-12.18c-18.39,0-33.31,14.91-33.31,33.31s14.91,33.31,33.31,33.31,33.31-14.91,33.31-33.31-14.91-33.31-33.31-33.31h0Z" fill="#f58120"/>
  <path d="m298.88,48.22c3.65,3.45,5.93,8.33,5.93,13.76v.08c0,10.47-8.48,18.97-18.97,18.97h-22.58c-9.21,0-16.9-6.58-18.6-15.29-.24-1.19-.37-2.42-.37-3.68v-.04h10.82v.04c0,1.33.31,2.57.89,3.68,1.34,2.65,4.09,4.46,7.25,4.46h22.58c4.49,0,8.15-3.65,8.15-8.15v-.08c0-4.49-3.65-8.15-8.15-8.15h-22.58c-5.07-.19-9.65-2.29-13.03-5.61-.05-.04-.11-.09-.16-.15-3.57-3.56-5.78-8.5-5.78-13.94,0-10.89,8.84-19.73,19.73-19.73h21.08c5.45,0,10.38,2.21,13.94,5.78,3.57,3.57,5.78,8.51,5.78,13.95,0,.23,0,.46-.01.69h-10.85c.03-.23.04-.46.04-.69,0-4.91-3.99-8.9-8.89-8.9h-21.08c-4.91,0-8.9,3.99-8.9,8.9s3.83,8.73,8.61,8.88c.09.01.2.01.3.01h21.08c.09,0,.2,0,.3-.01h.45c5.06,0,9.65,1.98,13.04,5.21Z" fill="#f58120"/>
  <g>
    <rect x="397.44" y="41.73" width="11.97" height="11.97" fill="#f58120"/>
    <rect x="415.23" y="41.73" width="11.97" height="11.97" fill="#2662af"/>
    <path d="m490.86,14.41v12.16h-9.54v54.44h-12.18V26.57h-69.17c-5.09,0-9.23,4.34-9.23,9.67v44.77h-12.18v-44.77c0-12.04,9.61-21.85,21.4-21.85h81.34s9.54.01,9.54.01Z" fill="#f58120"/>
    <rect x="496.38" y="14.41" width="12.16" height="12.16" fill="#2662af"/>
  </g>
  <path d="m32.79,34.1c0,4.15,3.38,7.52,7.52,7.52h11.59v12.18h-11.59c-4.15,0-7.52,3.38-7.52,7.52s3.38,7.52,7.52,7.52h34.51v12.18h-34.51c-10.86,0-19.7-8.84-19.7-19.7,0-5.27,2.08-10.07,5.48-13.61-3.4-3.54-5.48-8.34-5.48-13.61,0-10.86,8.84-19.7,19.7-19.7h34.51v12.18h-34.51c-4.15,0-7.52,3.38-7.52,7.52Z" fill="#fff"/>
  <rect x="55.8" y="41.63" width="12.18" height="12.18" fill="#f58120"/>
</svg>